<mxfile host="Electron" agent="Mozilla/5.0 (Windows NT 10.0; Win64; x64) AppleWebKit/537.36 (KHTML, like Gecko) draw.io/28.1.2 Chrome/138.0.7204.243 Electron/37.4.0 Safari/537.36" version="28.1.2">
  <diagram name="Page-1" id="w5c8ERlpFwUv5xIerBSc">
    <mxGraphModel dx="793" dy="555" grid="1" gridSize="10" guides="1" tooltips="1" connect="1" arrows="1" fold="1" page="1" pageScale="1" pageWidth="1100" pageHeight="850" math="0" shadow="0">
      <root>
        <mxCell id="0" />
        <mxCell id="1" parent="0" />
        <mxCell id="kzGIVJuzbTHx1Urgwy5C-2" value="admin" style="html=1;dashed=0;whiteSpace=wrap;shape=partialRectangle;right=0;left=0;" parent="1" vertex="1">
          <mxGeometry x="310" y="150" width="100" height="30" as="geometry" />
        </mxCell>
        <mxCell id="kzGIVJuzbTHx1Urgwy5C-4" style="edgeStyle=orthogonalEdgeStyle;rounded=0;orthogonalLoop=1;jettySize=auto;html=1;exitX=0.444;exitY=-0.018;exitDx=0;exitDy=0;entryX=0;entryY=0.375;entryDx=0;entryDy=0;entryPerimeter=0;exitPerimeter=0;" parent="1" source="kzGIVJuzbTHx1Urgwy5C-6" target="zYKxcOfA-0-OGyM70KTu-15" edge="1">
          <mxGeometry relative="1" as="geometry">
            <mxPoint x="290" y="205" as="targetPoint" />
            <mxPoint x="230" y="205" as="sourcePoint" />
          </mxGeometry>
        </mxCell>
        <mxCell id="zYKxcOfA-0-OGyM70KTu-37" style="edgeStyle=orthogonalEdgeStyle;rounded=0;orthogonalLoop=1;jettySize=auto;html=1;entryX=0.162;entryY=0.011;entryDx=0;entryDy=0;entryPerimeter=0;" parent="1" source="kzGIVJuzbTHx1Urgwy5C-6" target="zYKxcOfA-0-OGyM70KTu-38" edge="1">
          <mxGeometry relative="1" as="geometry">
            <mxPoint x="130" y="509.9999999999998" as="targetPoint" />
          </mxGeometry>
        </mxCell>
        <mxCell id="kzGIVJuzbTHx1Urgwy5C-6" value="ADMIN" style="html=1;dashed=0;whiteSpace=wrap;" parent="1" vertex="1">
          <mxGeometry x="80" y="310" width="100" height="50" as="geometry" />
        </mxCell>
        <mxCell id="kzGIVJuzbTHx1Urgwy5C-8" style="edgeStyle=orthogonalEdgeStyle;rounded=0;orthogonalLoop=1;jettySize=auto;html=1;entryX=0;entryY=0.5;entryDx=0;entryDy=0;exitX=0.5;exitY=1;exitDx=0;exitDy=0;" parent="1" source="zYKxcOfA-0-OGyM70KTu-15" target="kzGIVJuzbTHx1Urgwy5C-9" edge="1">
          <mxGeometry relative="1" as="geometry">
            <mxPoint x="580" y="205" as="targetPoint" />
            <mxPoint x="370" y="205" as="sourcePoint" />
          </mxGeometry>
        </mxCell>
        <mxCell id="kzGIVJuzbTHx1Urgwy5C-10" value="login sebagai admin" style="edgeLabel;html=1;align=center;verticalAlign=middle;resizable=0;points=[];rotation=-90;" parent="kzGIVJuzbTHx1Urgwy5C-8" vertex="1" connectable="0">
          <mxGeometry x="-0.0538" y="-1" relative="1" as="geometry">
            <mxPoint x="-9" y="-23" as="offset" />
          </mxGeometry>
        </mxCell>
        <mxCell id="kzGIVJuzbTHx1Urgwy5C-11" style="edgeStyle=orthogonalEdgeStyle;rounded=0;orthogonalLoop=1;jettySize=auto;html=1;exitX=0.5;exitY=0;exitDx=0;exitDy=0;" parent="1" source="kzGIVJuzbTHx1Urgwy5C-9" edge="1">
          <mxGeometry relative="1" as="geometry">
            <mxPoint x="730" y="370" as="targetPoint" />
            <mxPoint x="510" y="210" as="sourcePoint" />
            <Array as="points">
              <mxPoint x="485" y="200" />
              <mxPoint x="999" y="200" />
              <mxPoint x="999" y="370" />
            </Array>
          </mxGeometry>
        </mxCell>
        <mxCell id="kzGIVJuzbTHx1Urgwy5C-18" value="aktivitas pada dashboard admin" style="edgeLabel;html=1;align=center;verticalAlign=middle;resizable=0;points=[];" parent="kzGIVJuzbTHx1Urgwy5C-11" vertex="1" connectable="0">
          <mxGeometry x="-0.6284" y="-1" relative="1" as="geometry">
            <mxPoint y="-12" as="offset" />
          </mxGeometry>
        </mxCell>
        <mxCell id="YUnFpUHWukaaT6bIz78V-2" style="edgeStyle=orthogonalEdgeStyle;rounded=0;orthogonalLoop=1;jettySize=auto;html=1;exitX=0.053;exitY=0.697;exitDx=0;exitDy=0;exitPerimeter=0;entryX=0.981;entryY=0.832;entryDx=0;entryDy=0;entryPerimeter=0;" parent="1" source="kzGIVJuzbTHx1Urgwy5C-9" target="kzGIVJuzbTHx1Urgwy5C-6" edge="1">
          <mxGeometry relative="1" as="geometry">
            <mxPoint x="180" y="350" as="targetPoint" />
            <Array as="points" />
          </mxGeometry>
        </mxCell>
        <mxCell id="kzGIVJuzbTHx1Urgwy5C-9" value="toko baju nerro" style="shape=ellipse;html=1;dashed=0;whiteSpace=wrap;aspect=fixed;perimeter=ellipsePerimeter;" parent="1" vertex="1">
          <mxGeometry x="420" y="260" width="130" height="130" as="geometry" />
        </mxCell>
        <mxCell id="kzGIVJuzbTHx1Urgwy5C-13" value="edit data" style="swimlane;childLayout=stackLayout;horizontal=1;startSize=50;horizontalStack=0;resizeParent=1;resizeParentMax=0;resizeLast=0;collapsible=0;marginBottom=0;swimlaneFillColor=#000000;rotation=0;verticalAlign=middle;" parent="1" vertex="1">
          <mxGeometry x="660" y="330" width="70" height="70" as="geometry" />
        </mxCell>
        <mxCell id="kzGIVJuzbTHx1Urgwy5C-15" value="hapus data" style="swimlane;childLayout=stackLayout;horizontal=1;startSize=50;horizontalStack=0;resizeParent=1;resizeParentMax=0;resizeLast=0;collapsible=0;marginBottom=0;swimlaneFillColor=#000000;rotation=0;verticalAlign=middle;" parent="1" vertex="1">
          <mxGeometry x="660" y="440" width="70" height="70" as="geometry" />
        </mxCell>
        <mxCell id="kzGIVJuzbTHx1Urgwy5C-16" value="" style="endArrow=none;html=1;rounded=0;entryX=0.5;entryY=1;entryDx=0;entryDy=0;exitX=0.5;exitY=0;exitDx=0;exitDy=0;" parent="1" source="kzGIVJuzbTHx1Urgwy5C-15" target="kzGIVJuzbTHx1Urgwy5C-13" edge="1">
          <mxGeometry width="50" height="50" relative="1" as="geometry">
            <mxPoint x="570" y="480" as="sourcePoint" />
            <mxPoint x="620" y="430" as="targetPoint" />
          </mxGeometry>
        </mxCell>
        <mxCell id="kzGIVJuzbTHx1Urgwy5C-17" value="tb_produk" style="html=1;dashed=0;whiteSpace=wrap;shape=partialRectangle;right=0;left=0;" parent="1" vertex="1">
          <mxGeometry x="820" y="330" width="100" height="30" as="geometry" />
        </mxCell>
        <mxCell id="kzGIVJuzbTHx1Urgwy5C-24" style="edgeStyle=orthogonalEdgeStyle;rounded=0;orthogonalLoop=1;jettySize=auto;html=1;exitX=-0.013;exitY=0.468;exitDx=0;exitDy=0;exitPerimeter=0;entryX=1;entryY=0.5;entryDx=0;entryDy=0;" parent="1" source="kzGIVJuzbTHx1Urgwy5C-13" target="kzGIVJuzbTHx1Urgwy5C-9" edge="1">
          <mxGeometry relative="1" as="geometry">
            <mxPoint x="656.4" y="363.18000000000006" as="sourcePoint" />
            <mxPoint x="630" y="270" as="targetPoint" />
            <Array as="points">
              <mxPoint x="630" y="363" />
              <mxPoint x="630" y="325" />
            </Array>
          </mxGeometry>
        </mxCell>
        <mxCell id="kzGIVJuzbTHx1Urgwy5C-25" value="pembayaran" style="swimlane;childLayout=stackLayout;horizontal=1;startSize=50;horizontalStack=0;resizeParent=1;resizeParentMax=0;resizeLast=0;collapsible=0;marginBottom=0;swimlaneFillColor=#000000;rotation=0;verticalAlign=middle;" parent="1" vertex="1">
          <mxGeometry x="660" y="540" width="70" height="70" as="geometry" />
        </mxCell>
        <mxCell id="kzGIVJuzbTHx1Urgwy5C-27" value="" style="endArrow=none;html=1;rounded=0;entryX=0.5;entryY=1;entryDx=0;entryDy=0;exitX=0.5;exitY=0;exitDx=0;exitDy=0;" parent="1" source="kzGIVJuzbTHx1Urgwy5C-25" target="kzGIVJuzbTHx1Urgwy5C-15" edge="1">
          <mxGeometry width="50" height="50" relative="1" as="geometry">
            <mxPoint x="600" y="560" as="sourcePoint" />
            <mxPoint x="650" y="510" as="targetPoint" />
          </mxGeometry>
        </mxCell>
        <mxCell id="kzGIVJuzbTHx1Urgwy5C-30" value="" style="endArrow=none;html=1;rounded=0;exitX=0;exitY=0.571;exitDx=0;exitDy=0;exitPerimeter=0;" parent="1" source="kzGIVJuzbTHx1Urgwy5C-25" edge="1">
          <mxGeometry width="50" height="50" relative="1" as="geometry">
            <mxPoint x="530" y="530" as="sourcePoint" />
            <mxPoint x="630" y="360" as="targetPoint" />
            <Array as="points">
              <mxPoint x="630" y="580" />
            </Array>
          </mxGeometry>
        </mxCell>
        <mxCell id="kzGIVJuzbTHx1Urgwy5C-31" value="" style="endArrow=none;html=1;rounded=0;entryX=0;entryY=0.571;entryDx=0;entryDy=0;entryPerimeter=0;" parent="1" target="kzGIVJuzbTHx1Urgwy5C-15" edge="1">
          <mxGeometry width="50" height="50" relative="1" as="geometry">
            <mxPoint x="630" y="480" as="sourcePoint" />
            <mxPoint x="580" y="450" as="targetPoint" />
          </mxGeometry>
        </mxCell>
        <mxCell id="zYKxcOfA-0-OGyM70KTu-20" style="edgeStyle=orthogonalEdgeStyle;rounded=0;orthogonalLoop=1;jettySize=auto;html=1;entryX=-0.008;entryY=0.49;entryDx=0;entryDy=0;entryPerimeter=0;exitX=0.429;exitY=0.006;exitDx=0;exitDy=0;exitPerimeter=0;" parent="1" source="zYKxcOfA-0-OGyM70KTu-2" target="zYKxcOfA-0-OGyM70KTu-21" edge="1">
          <mxGeometry relative="1" as="geometry">
            <mxPoint x="250" y="1045" as="targetPoint" />
          </mxGeometry>
        </mxCell>
        <mxCell id="zYKxcOfA-0-OGyM70KTu-34" style="edgeStyle=orthogonalEdgeStyle;rounded=0;orthogonalLoop=1;jettySize=auto;html=1;entryX=0.2;entryY=0.018;entryDx=0;entryDy=0;entryPerimeter=0;" parent="1" source="zYKxcOfA-0-OGyM70KTu-2" target="zYKxcOfA-0-OGyM70KTu-33" edge="1">
          <mxGeometry relative="1" as="geometry">
            <Array as="points" />
          </mxGeometry>
        </mxCell>
        <mxCell id="zYKxcOfA-0-OGyM70KTu-43" style="edgeStyle=orthogonalEdgeStyle;rounded=0;orthogonalLoop=1;jettySize=auto;html=1;exitX=0.996;exitY=0.795;exitDx=0;exitDy=0;exitPerimeter=0;entryX=0.012;entryY=0.609;entryDx=0;entryDy=0;entryPerimeter=0;" parent="1" source="zYKxcOfA-0-OGyM70KTu-2" target="zYKxcOfA-0-OGyM70KTu-19" edge="1">
          <mxGeometry relative="1" as="geometry">
            <Array as="points">
              <mxPoint x="240" y="1160" />
              <mxPoint x="240" y="1229" />
            </Array>
          </mxGeometry>
        </mxCell>
        <mxCell id="zYKxcOfA-0-OGyM70KTu-2" value="USER" style="html=1;dashed=0;whiteSpace=wrap;" parent="1" vertex="1">
          <mxGeometry x="60" y="1120" width="100" height="50" as="geometry" />
        </mxCell>
        <mxCell id="zYKxcOfA-0-OGyM70KTu-4" value="tb_pembeli" style="html=1;dashed=0;whiteSpace=wrap;shape=partialRectangle;right=0;left=0;" parent="1" vertex="1">
          <mxGeometry x="890" y="460" width="100" height="30" as="geometry" />
        </mxCell>
        <mxCell id="zYKxcOfA-0-OGyM70KTu-5" value="" style="endArrow=classic;html=1;rounded=0;" parent="1" edge="1">
          <mxGeometry width="50" height="50" relative="1" as="geometry">
            <mxPoint x="1000" y="370" as="sourcePoint" />
            <mxPoint x="940" y="610" as="targetPoint" />
            <Array as="points">
              <mxPoint x="1000" y="610" />
            </Array>
          </mxGeometry>
        </mxCell>
        <mxCell id="zYKxcOfA-0-OGyM70KTu-6" value="kelola user" style="text;html=1;align=center;verticalAlign=middle;resizable=0;points=[];autosize=1;strokeColor=none;fillColor=none;rotation=-90;" parent="1" vertex="1">
          <mxGeometry x="980" y="460" width="80" height="30" as="geometry" />
        </mxCell>
        <mxCell id="zYKxcOfA-0-OGyM70KTu-7" value="mengelola data produk" style="text;html=1;align=center;verticalAlign=middle;resizable=0;points=[];autosize=1;strokeColor=none;fillColor=none;" parent="1" vertex="1">
          <mxGeometry x="790" y="370" width="150" height="30" as="geometry" />
        </mxCell>
        <mxCell id="zYKxcOfA-0-OGyM70KTu-14" value="melihat data&#xa;daftar &#xa;pengguna" style="swimlane;childLayout=stackLayout;horizontal=1;startSize=50;horizontalStack=0;resizeParent=1;resizeParentMax=0;resizeLast=0;collapsible=0;marginBottom=0;swimlaneFillColor=#000000;rotation=0;verticalAlign=middle;" parent="1" vertex="1">
          <mxGeometry x="870" y="580" width="70" height="70" as="geometry" />
        </mxCell>
        <mxCell id="zYKxcOfA-0-OGyM70KTu-15" value="LOGIN" style="rounded=1;whiteSpace=wrap;html=1;" parent="1" vertex="1">
          <mxGeometry x="320" y="190" width="80" height="40" as="geometry" />
        </mxCell>
        <mxCell id="zYKxcOfA-0-OGyM70KTu-17" value="konfirmasi login" style="text;html=1;align=center;verticalAlign=middle;resizable=0;points=[];autosize=1;strokeColor=none;fillColor=none;" parent="1" vertex="1">
          <mxGeometry x="140" y="180" width="110" height="30" as="geometry" />
        </mxCell>
        <mxCell id="zYKxcOfA-0-OGyM70KTu-42" style="edgeStyle=orthogonalEdgeStyle;rounded=0;orthogonalLoop=1;jettySize=auto;html=1;entryX=1;entryY=0.25;entryDx=0;entryDy=0;exitX=0;exitY=0.405;exitDx=0;exitDy=0;exitPerimeter=0;" parent="1" source="zYKxcOfA-0-OGyM70KTu-19" target="zYKxcOfA-0-OGyM70KTu-2" edge="1">
          <mxGeometry relative="1" as="geometry">
            <Array as="points">
              <mxPoint x="270" y="1203" />
              <mxPoint x="270" y="1132" />
            </Array>
          </mxGeometry>
        </mxCell>
        <mxCell id="zYKxcOfA-0-OGyM70KTu-19" value="toko baju nerro" style="shape=ellipse;html=1;dashed=0;whiteSpace=wrap;aspect=fixed;perimeter=ellipsePerimeter;" parent="1" vertex="1">
          <mxGeometry x="350" y="1150" width="130" height="130" as="geometry" />
        </mxCell>
        <mxCell id="zYKxcOfA-0-OGyM70KTu-25" style="edgeStyle=orthogonalEdgeStyle;rounded=0;orthogonalLoop=1;jettySize=auto;html=1;entryX=0;entryY=0.5;entryDx=0;entryDy=0;" parent="1" source="zYKxcOfA-0-OGyM70KTu-21" target="zYKxcOfA-0-OGyM70KTu-24" edge="1">
          <mxGeometry relative="1" as="geometry" />
        </mxCell>
        <mxCell id="zYKxcOfA-0-OGyM70KTu-21" value="LOGIN" style="rounded=1;whiteSpace=wrap;html=1;" parent="1" vertex="1">
          <mxGeometry x="200" y="1025" width="90" height="40" as="geometry" />
        </mxCell>
        <mxCell id="zYKxcOfA-0-OGyM70KTu-23" value="tb_user" style="html=1;dashed=0;whiteSpace=wrap;shape=partialRectangle;right=0;left=0;" parent="1" vertex="1">
          <mxGeometry x="195" y="980" width="100" height="30" as="geometry" />
        </mxCell>
        <mxCell id="zYKxcOfA-0-OGyM70KTu-28" style="edgeStyle=orthogonalEdgeStyle;rounded=0;orthogonalLoop=1;jettySize=auto;html=1;entryX=0;entryY=0.5;entryDx=0;entryDy=0;" parent="1" source="zYKxcOfA-0-OGyM70KTu-24" target="zYKxcOfA-0-OGyM70KTu-27" edge="1">
          <mxGeometry relative="1" as="geometry" />
        </mxCell>
        <mxCell id="zYKxcOfA-0-OGyM70KTu-24" value="verifikasi" style="rounded=0;whiteSpace=wrap;html=1;" parent="1" vertex="1">
          <mxGeometry x="350" y="1025" width="80" height="40" as="geometry" />
        </mxCell>
        <mxCell id="zYKxcOfA-0-OGyM70KTu-29" style="edgeStyle=orthogonalEdgeStyle;rounded=0;orthogonalLoop=1;jettySize=auto;html=1;entryX=0.5;entryY=0;entryDx=0;entryDy=0;exitX=0.532;exitY=1.012;exitDx=0;exitDy=0;exitPerimeter=0;" parent="1" source="zYKxcOfA-0-OGyM70KTu-27" target="zYKxcOfA-0-OGyM70KTu-19" edge="1">
          <mxGeometry relative="1" as="geometry" />
        </mxCell>
        <mxCell id="zYKxcOfA-0-OGyM70KTu-27" value="login ulang" style="rounded=0;whiteSpace=wrap;html=1;" parent="1" vertex="1">
          <mxGeometry x="530" y="1025" width="80" height="40" as="geometry" />
        </mxCell>
        <mxCell id="zYKxcOfA-0-OGyM70KTu-30" value="data profil&amp;nbsp;&lt;div&gt;pelanggan&lt;/div&gt;" style="text;html=1;align=center;verticalAlign=middle;resizable=0;points=[];autosize=1;strokeColor=none;fillColor=none;" parent="1" vertex="1">
          <mxGeometry x="90" y="1000" width="80" height="40" as="geometry" />
        </mxCell>
        <mxCell id="zYKxcOfA-0-OGyM70KTu-35" style="edgeStyle=orthogonalEdgeStyle;rounded=0;orthogonalLoop=1;jettySize=auto;html=1;entryX=0.5;entryY=1;entryDx=0;entryDy=0;exitX=0.75;exitY=0;exitDx=0;exitDy=0;" parent="1" source="zYKxcOfA-0-OGyM70KTu-33" target="zYKxcOfA-0-OGyM70KTu-19" edge="1">
          <mxGeometry relative="1" as="geometry">
            <mxPoint x="190" y="1340" as="sourcePoint" />
            <Array as="points">
              <mxPoint x="190" y="1350" />
              <mxPoint x="190" y="1330" />
              <mxPoint x="415" y="1330" />
            </Array>
          </mxGeometry>
        </mxCell>
        <mxCell id="zYKxcOfA-0-OGyM70KTu-36" style="edgeStyle=orthogonalEdgeStyle;rounded=0;orthogonalLoop=1;jettySize=auto;html=1;entryX=0;entryY=0.5;entryDx=0;entryDy=0;" parent="1" source="zYKxcOfA-0-OGyM70KTu-33" target="zYKxcOfA-0-OGyM70KTu-39" edge="1">
          <mxGeometry relative="1" as="geometry">
            <mxPoint x="380" y="1375.0000000000002" as="targetPoint" />
          </mxGeometry>
        </mxCell>
        <mxCell id="zYKxcOfA-0-OGyM70KTu-33" value="memesan" style="rounded=0;whiteSpace=wrap;html=1;" parent="1" vertex="1">
          <mxGeometry x="80" y="1350" width="150" height="50" as="geometry" />
        </mxCell>
        <mxCell id="zYKxcOfA-0-OGyM70KTu-56" style="edgeStyle=orthogonalEdgeStyle;rounded=0;orthogonalLoop=1;jettySize=auto;html=1;" parent="1" source="zYKxcOfA-0-OGyM70KTu-38" target="zYKxcOfA-0-OGyM70KTu-57" edge="1">
          <mxGeometry relative="1" as="geometry">
            <mxPoint x="310" y="540" as="targetPoint" />
          </mxGeometry>
        </mxCell>
        <mxCell id="zYKxcOfA-0-OGyM70KTu-38" value="pelanggan memesan" style="rounded=0;whiteSpace=wrap;html=1;" parent="1" vertex="1">
          <mxGeometry x="110" y="510" width="120" height="60" as="geometry" />
        </mxCell>
        <mxCell id="zYKxcOfA-0-OGyM70KTu-44" style="edgeStyle=orthogonalEdgeStyle;rounded=0;orthogonalLoop=1;jettySize=auto;html=1;" parent="1" source="zYKxcOfA-0-OGyM70KTu-39" edge="1">
          <mxGeometry relative="1" as="geometry">
            <mxPoint x="690" y="1230" as="targetPoint" />
          </mxGeometry>
        </mxCell>
        <mxCell id="zYKxcOfA-0-OGyM70KTu-39" value="metode pembayaran" style="rounded=1;whiteSpace=wrap;html=1;" parent="1" vertex="1">
          <mxGeometry x="410" y="1345" width="120" height="60" as="geometry" />
        </mxCell>
        <mxCell id="zYKxcOfA-0-OGyM70KTu-41" value="pembayaran" style="html=1;dashed=0;whiteSpace=wrap;shape=partialRectangle;right=0;left=0;" parent="1" vertex="1">
          <mxGeometry x="430" y="1420" width="100" height="30" as="geometry" />
        </mxCell>
        <mxCell id="zYKxcOfA-0-OGyM70KTu-46" value="kurir" style="rounded=1;whiteSpace=wrap;html=1;" parent="1" vertex="1">
          <mxGeometry x="630" y="1170" width="120" height="60" as="geometry" />
        </mxCell>
        <mxCell id="zYKxcOfA-0-OGyM70KTu-47" value="ongkir" style="html=1;dashed=0;whiteSpace=wrap;shape=partialRectangle;right=0;left=0;" parent="1" vertex="1">
          <mxGeometry x="760" y="1185" width="100" height="30" as="geometry" />
        </mxCell>
        <mxCell id="zYKxcOfA-0-OGyM70KTu-48" style="edgeStyle=orthogonalEdgeStyle;rounded=0;orthogonalLoop=1;jettySize=auto;html=1;entryX=0.952;entryY=0.283;entryDx=0;entryDy=0;entryPerimeter=0;exitX=-0.016;exitY=0.275;exitDx=0;exitDy=0;exitPerimeter=0;" parent="1" source="zYKxcOfA-0-OGyM70KTu-46" target="zYKxcOfA-0-OGyM70KTu-19" edge="1">
          <mxGeometry relative="1" as="geometry" />
        </mxCell>
        <mxCell id="zYKxcOfA-0-OGyM70KTu-49" style="edgeStyle=orthogonalEdgeStyle;rounded=0;orthogonalLoop=1;jettySize=auto;html=1;entryX=1.008;entryY=0.523;entryDx=0;entryDy=0;entryPerimeter=0;exitX=0.004;exitY=0.81;exitDx=0;exitDy=0;exitPerimeter=0;" parent="1" source="zYKxcOfA-0-OGyM70KTu-46" target="zYKxcOfA-0-OGyM70KTu-19" edge="1">
          <mxGeometry relative="1" as="geometry" />
        </mxCell>
        <mxCell id="zYKxcOfA-0-OGyM70KTu-51" value="data diterima" style="text;html=1;align=center;verticalAlign=middle;resizable=0;points=[];autosize=1;strokeColor=none;fillColor=none;" parent="1" vertex="1">
          <mxGeometry x="440" y="1080" width="90" height="30" as="geometry" />
        </mxCell>
        <mxCell id="zYKxcOfA-0-OGyM70KTu-53" value="memesan orderan" style="text;html=1;align=center;verticalAlign=middle;resizable=0;points=[];autosize=1;strokeColor=none;fillColor=none;" parent="1" vertex="1">
          <mxGeometry x="225" y="1308" width="120" height="30" as="geometry" />
        </mxCell>
        <mxCell id="Xnw9eJEp8whqWNR98b8b-8" style="edgeStyle=orthogonalEdgeStyle;rounded=0;orthogonalLoop=1;jettySize=auto;html=1;entryX=0.922;entryY=0.769;entryDx=0;entryDy=0;entryPerimeter=0;" edge="1" parent="1" source="zYKxcOfA-0-OGyM70KTu-57" target="kzGIVJuzbTHx1Urgwy5C-9">
          <mxGeometry relative="1" as="geometry">
            <Array as="points">
              <mxPoint x="560" y="540" />
              <mxPoint x="560" y="360" />
            </Array>
          </mxGeometry>
        </mxCell>
        <mxCell id="zYKxcOfA-0-OGyM70KTu-57" value="acc pembayaran" style="html=1;dashed=0;whiteSpace=wrap;" parent="1" vertex="1">
          <mxGeometry x="390" y="515" width="100" height="50" as="geometry" />
        </mxCell>
        <mxCell id="zYKxcOfA-0-OGyM70KTu-58" value="tb_pembelian" style="html=1;dashed=0;whiteSpace=wrap;shape=partialRectangle;right=0;left=0;" parent="1" vertex="1">
          <mxGeometry x="390" y="470" width="100" height="30" as="geometry" />
        </mxCell>
        <mxCell id="zYKxcOfA-0-OGyM70KTu-59" value="pelanggan memencet beli" style="text;html=1;align=center;verticalAlign=middle;resizable=0;points=[];autosize=1;strokeColor=none;fillColor=none;" parent="1" vertex="1">
          <mxGeometry x="225" y="515" width="160" height="30" as="geometry" />
        </mxCell>
      </root>
    </mxGraphModel>
  </diagram>
</mxfile>
